<?xml version="1.0" standalone="no"?>
<!DOCTYPE svg PUBLIC "-//W3C//DTD SVG 20010904//EN"
 "http://www.w3.org/TR/2001/REC-SVG-20010904/DTD/svg10.dtd">
<svg version="1.0" xmlns="http://www.w3.org/2000/svg"
 width="3240.000000pt" height="3237.000000pt" viewBox="0 0 3240.000000 3237.000000"
 preserveAspectRatio="xMidYMid meet">

<g transform="translate(0.000000,3237.000000) scale(0.100000,-0.100000)"
fill="#000000" stroke="none">
<path d="M707 28441 c-27 -4 -53 -14 -58 -22 -15 -23 -12 -792 4 -812 12 -18
21 -19 262 -46 39 -4 79 -13 90 -18 11 -6 47 -14 80 -18 33 -4 80 -13 105 -20
25 -7 106 -30 180 -50 74 -20 170 -52 213 -71 43 -19 84 -34 91 -34 8 0 25 -9
39 -20 14 -12 41 -26 59 -32 18 -6 49 -23 68 -38 19 -15 55 -37 80 -48 25 -12
66 -39 91 -59 25 -21 84 -67 130 -102 106 -81 147 -119 165 -154 8 -15 28 -36
43 -45 31 -19 91 -90 166 -197 47 -66 60 -81 78 -87 4 -2 10 -17 13 -33 3 -17
18 -50 34 -75 35 -54 90 -171 120 -255 81 -226 83 -236 210 -734 16 -62 34
-118 39 -125 5 -6 14 -44 19 -84 6 -40 16 -80 23 -88 7 -9 16 -37 20 -62 8
-57 25 -127 51 -207 11 -33 26 -90 33 -127 7 -38 18 -80 24 -95 13 -32 68
-246 81 -313 4 -25 15 -58 24 -75 9 -16 16 -40 16 -53 0 -12 9 -50 20 -83 11
-33 23 -81 27 -106 3 -26 12 -58 20 -73 7 -14 13 -37 13 -52 0 -15 11 -64 25
-110 42 -135 51 -169 70 -253 10 -44 26 -101 36 -127 11 -26 19 -55 19 -66 0
-11 7 -42 15 -68 8 -27 32 -121 55 -209 22 -88 49 -191 60 -230 11 -38 25 -90
30 -115 5 -25 19 -79 30 -120 11 -41 43 -160 70 -265 72 -279 72 -278 87 -300
7 -11 13 -38 13 -60 1 -22 8 -58 16 -80 9 -22 20 -64 25 -94 5 -29 16 -65 23
-80 7 -14 16 -46 20 -71 4 -25 15 -72 26 -105 10 -33 26 -96 35 -140 10 -44
24 -100 32 -125 8 -25 24 -81 35 -125 34 -137 59 -227 84 -307 13 -43 24 -88
24 -100 0 -13 11 -54 25 -93 13 -38 25 -79 25 -89 0 -10 16 -78 36 -150 39
-142 51 -187 84 -316 12 -47 26 -95 31 -108 5 -13 9 -34 9 -47 0 -13 5 -34 10
-47 10 -21 70 -236 89 -318 19 -80 35 -141 66 -250 18 -63 40 -146 50 -185 9
-38 23 -95 31 -125 7 -30 23 -93 35 -140 11 -47 27 -99 34 -116 7 -17 17 -53
20 -80 4 -27 15 -69 25 -94 10 -25 25 -85 34 -133 10 -49 31 -127 47 -175 16
-48 29 -98 29 -112 1 -14 8 -43 16 -65 9 -22 20 -65 25 -95 6 -30 19 -73 29
-96 11 -22 20 -57 20 -77 0 -20 11 -66 24 -104 13 -37 31 -102 40 -143 10 -41
29 -113 43 -160 14 -47 32 -110 39 -140 7 -30 19 -75 27 -100 8 -25 20 -74 27
-110 6 -36 22 -99 35 -140 13 -41 33 -120 45 -175 12 -55 28 -118 36 -141 12
-34 44 -154 114 -424 6 -25 22 -81 36 -126 13 -44 24 -90 24 -102 0 -11 4 -31
9 -44 17 -44 40 -123 50 -173 6 -27 25 -99 42 -160 17 -60 39 -148 49 -193 10
-46 23 -89 29 -95 6 -6 11 -22 11 -35 0 -34 27 -143 61 -247 16 -49 29 -98 29
-108 0 -10 11 -51 24 -90 14 -40 28 -94 31 -122 4 -27 14 -61 22 -74 8 -13 19
-55 25 -95 5 -39 16 -81 24 -93 8 -12 14 -32 14 -43 0 -23 66 -254 81 -281 5
-10 9 -33 9 -51 0 -19 7 -61 16 -93 62 -226 96 -356 104 -395 5 -25 16 -67 25
-95 15 -48 61 -218 90 -335 7 -30 19 -69 25 -85 6 -17 15 -48 20 -70 5 -22 22
-92 39 -155 17 -63 36 -135 42 -160 6 -25 20 -74 29 -110 10 -36 30 -114 45
-175 61 -238 92 -351 103 -372 7 -12 12 -34 12 -50 1 -15 8 -46 16 -68 9 -22
20 -67 26 -100 6 -33 19 -77 29 -97 10 -21 19 -57 19 -80 0 -24 9 -61 20 -83
11 -22 20 -46 20 -55 0 -15 15 -75 85 -335 65 -243 59 -228 91 -239 33 -12
904 -15 944 -4 21 6 29 21 52 90 14 46 29 99 33 118 4 19 11 40 16 46 5 6 13
31 19 55 10 48 72 238 100 309 10 25 21 63 25 85 4 22 15 63 25 90 11 28 53
156 94 285 42 129 81 249 87 265 6 17 17 53 25 80 7 28 20 73 29 100 9 28 39
122 67 210 28 88 59 181 69 207 11 26 19 56 19 68 0 11 7 34 15 50 8 16 21 55
29 87 7 33 18 68 24 78 13 22 85 253 103 330 7 28 25 77 39 110 15 33 31 78
35 100 3 21 13 51 21 66 7 15 18 44 23 65 5 22 17 62 26 89 9 28 32 102 52
165 19 63 57 181 84 261 27 81 49 154 49 163 0 9 13 52 29 94 16 42 36 104 46
137 9 33 26 85 37 115 11 30 23 71 27 91 4 19 11 41 16 48 4 7 16 43 25 80 10
36 48 152 85 256 36 105 75 228 86 275 12 47 25 91 31 98 6 6 16 38 23 70 7
31 20 77 28 102 9 25 23 68 32 95 30 96 136 421 162 495 14 41 31 95 38 120
14 47 21 71 50 155 9 28 22 70 30 95 14 49 44 143 74 243 11 34 29 87 40 117
10 30 36 109 56 175 20 66 43 140 51 165 9 25 25 74 37 110 11 36 36 110 55
165 18 55 44 137 57 183 13 46 31 102 41 125 9 23 20 65 24 92 4 28 17 73 28
100 49 122 72 187 72 208 0 13 9 40 20 62 11 22 20 47 20 56 0 9 9 38 19 65
11 27 43 123 71 214 29 91 63 197 76 237 13 39 24 84 24 100 0 16 4 33 9 39
14 14 242 711 256 783 4 18 18 58 31 87 13 30 24 60 24 67 0 13 73 249 95 307
25 66 67 195 75 230 4 19 23 80 43 135 32 93 76 229 149 465 16 52 70 219 118
370 49 151 92 289 96 305 4 17 16 50 26 75 11 25 23 63 28 85 5 22 22 78 39
125 17 47 44 135 62 195 17 61 42 137 54 170 13 33 27 71 30 85 10 39 115 372
127 400 5 14 19 57 30 95 34 120 46 158 66 210 19 46 30 86 52 175 4 19 17 58
28 85 27 65 102 301 102 320 0 33 32 93 56 104 46 20 57 3 103 -156 58 -202
91 -302 102 -308 5 -4 9 -18 9 -32 0 -14 12 -62 26 -107 14 -44 33 -106 41
-136 9 -30 24 -76 34 -102 11 -26 19 -54 19 -64 0 -16 54 -189 90 -289 10 -27
22 -68 28 -90 6 -22 25 -85 42 -140 17 -55 38 -124 45 -153 7 -29 18 -58 23
-65 5 -7 13 -28 16 -47 10 -49 54 -196 76 -250 10 -25 21 -62 24 -83 10 -55
54 -186 71 -210 8 -12 15 -36 15 -54 0 -18 9 -56 19 -85 11 -29 29 -87 41
-128 26 -91 113 -373 141 -455 11 -33 24 -79 29 -103 5 -24 16 -58 25 -75 8
-18 19 -54 24 -82 5 -27 24 -88 41 -135 17 -47 37 -110 44 -140 8 -30 23 -81
35 -112 11 -32 21 -68 21 -81 0 -13 7 -32 15 -43 8 -10 15 -28 15 -38 0 -11
27 -104 60 -207 33 -103 60 -197 60 -208 0 -12 9 -39 20 -61 11 -21 31 -78 44
-127 13 -48 28 -101 34 -118 37 -109 44 -135 53 -173 5 -24 18 -63 28 -88 11
-25 28 -75 37 -112 18 -75 56 -198 86 -282 11 -30 25 -73 30 -95 6 -22 19 -65
29 -95 9 -30 25 -82 34 -115 9 -33 43 -143 75 -245 33 -102 82 -261 110 -355
27 -93 57 -182 65 -197 8 -14 15 -39 15 -55 0 -15 20 -86 45 -158 25 -71 45
-138 45 -147 0 -10 11 -46 24 -80 13 -35 29 -81 34 -103 27 -104 53 -179 67
-195 8 -9 15 -36 15 -61 0 -24 9 -62 19 -85 10 -23 23 -63 29 -90 6 -27 18
-63 26 -79 9 -17 16 -37 16 -46 0 -20 55 -202 69 -228 6 -10 17 -47 24 -82 8
-35 19 -77 25 -94 6 -16 25 -77 43 -135 59 -199 80 -259 95 -270 8 -7 14 -29
14 -49 0 -21 11 -70 25 -109 14 -39 25 -82 25 -94 0 -13 9 -38 20 -56 11 -18
20 -42 20 -54 0 -27 46 -177 74 -242 27 -64 30 -244 4 -321 -9 -27 -22 -84
-29 -125 -25 -159 -45 -268 -70 -385 -10 -49 -19 -101 -19 -115 0 -14 -9 -70
-21 -125 -57 -281 -67 -332 -74 -395 -4 -30 -13 -77 -20 -105 -7 -27 -16 -79
-20 -115 -3 -36 -15 -99 -26 -140 -18 -71 -34 -151 -59 -315 -9 -59 -25 -124
-47 -195 -3 -8 -11 -53 -19 -100 -13 -84 -17 -100 -54 -250 -11 -41 -31 -127
-46 -190 -14 -63 -34 -144 -44 -180 -10 -36 -31 -108 -46 -160 -14 -52 -30
-111 -33 -130 -4 -19 -13 -45 -20 -58 -7 -13 -16 -44 -21 -70 -12 -67 -84
-275 -131 -378 -11 -23 -19 -44 -19 -48 0 -8 -45 -105 -101 -220 -22 -43 -39
-84 -39 -91 0 -6 -9 -23 -21 -36 -12 -13 -35 -51 -51 -84 -35 -70 -108 -183
-154 -240 -58 -71 -218 -240 -244 -257 -14 -9 -50 -36 -81 -60 -31 -24 -69
-51 -85 -60 -16 -10 -36 -22 -44 -27 -216 -132 -453 -223 -750 -287 -91 -20
-198 -44 -238 -55 -40 -10 -87 -19 -105 -19 -18 0 -67 -9 -108 -20 -41 -11
-92 -20 -114 -20 -22 0 -76 -7 -120 -14 -93 -17 -109 -31 -123 -109 -6 -29
-17 -90 -26 -137 -10 -47 -24 -123 -31 -170 -8 -46 -21 -111 -29 -145 -8 -33
-20 -95 -27 -138 -15 -89 -9 -106 37 -119 16 -4 1242 -7 2724 -7 2044 1 2705
4 2735 13 29 8 42 18 47 36 17 64 39 172 48 240 6 41 19 111 30 156 11 45 20
95 20 111 0 16 6 53 14 83 8 30 17 81 21 112 l7 57 -53 15 c-29 9 -65 16 -80
16 -16 0 -52 9 -81 19 -29 11 -71 23 -93 27 -22 4 -62 18 -90 30 -27 13 -58
24 -68 24 -24 0 -223 66 -259 86 -15 8 -58 23 -95 33 -37 10 -123 44 -191 75
-68 31 -129 56 -136 56 -7 0 -27 11 -46 25 -19 14 -39 25 -45 25 -13 0 -120
67 -195 122 -67 48 -190 176 -190 197 0 10 -9 26 -19 35 -54 49 -160 350 -191
541 -6 39 -16 97 -22 130 -26 138 -25 853 1 995 6 30 20 152 31 270 11 118 25
229 30 245 5 17 12 68 16 115 4 54 12 91 22 103 32 36 58 14 77 -66 7 -28 20
-72 29 -97 9 -25 32 -97 50 -160 19 -63 39 -128 45 -145 6 -16 27 -86 47 -155
20 -69 40 -129 45 -134 5 -6 9 -24 9 -40 0 -17 12 -58 25 -91 14 -33 25 -66
25 -73 0 -13 38 -136 69 -227 38 -106 71 -221 71 -240 0 -11 9 -37 20 -58 11
-20 20 -45 20 -55 0 -22 32 -132 65 -222 13 -36 26 -79 30 -97 3 -17 13 -37
21 -44 8 -6 14 -28 14 -49 0 -40 13 -90 35 -130 7 -14 18 -52 24 -85 18 -101
-21 -94 534 -91 339 1 490 6 509 14 17 7 30 21 33 39 7 32 68 236 91 303 9 25
19 63 24 85 5 22 13 53 19 68 6 16 11 39 11 53 0 14 8 41 19 62 10 20 21 57
25 82 4 24 11 49 16 55 5 6 16 38 24 71 8 32 24 91 36 129 12 39 29 99 39 135
18 64 122 418 175 594 15 49 28 101 30 115 1 14 10 40 18 56 9 17 19 57 23 90
4 33 14 71 23 84 8 14 19 39 23 55 32 122 73 269 104 371 59 195 71 235 99
340 15 55 45 158 68 228 22 71 43 147 46 170 3 23 11 51 18 62 7 11 22 56 33
100 11 44 27 100 36 124 8 25 22 74 31 110 8 36 37 135 64 221 26 85 51 171
53 190 3 19 22 82 41 140 20 58 39 121 42 140 3 19 19 76 35 125 17 50 39 126
50 170 11 44 26 100 34 125 7 25 16 57 19 71 7 31 45 51 70 37 13 -7 17 -21
15 -56 0 -26 4 -78 10 -117 15 -98 33 -260 37 -320 3 -59 21 -223 34 -315 11
-76 25 -193 40 -340 6 -58 15 -136 21 -175 6 -38 14 -119 19 -180 5 -60 16
-166 25 -235 9 -69 20 -163 25 -210 18 -181 51 -468 60 -530 5 -36 16 -135 25
-220 8 -85 19 -177 24 -205 5 -27 12 -95 16 -150 3 -55 12 -134 20 -175 8 -41
19 -142 25 -225 6 -82 15 -168 20 -190 5 -22 14 -98 20 -170 7 -71 19 -175 26
-230 8 -55 21 -167 29 -250 8 -82 19 -184 25 -227 15 -109 49 -423 61 -558 5
-63 16 -155 24 -205 8 -49 17 -124 21 -165 10 -121 41 -404 64 -586 5 -44 10
-96 10 -116 0 -58 18 -95 52 -107 35 -12 386 -15 405 -3 16 10 143 268 143
290 0 10 8 29 18 42 37 53 172 315 172 336 0 7 12 30 26 51 37 54 154 292 154
314 0 10 5 21 10 24 6 4 21 28 34 53 13 26 49 94 80 152 30 58 55 113 56 122
0 9 12 34 26 55 38 56 154 290 154 311 0 10 6 24 13 30 6 7 23 35 37 62 14 26
51 98 83 159 31 61 57 119 57 130 0 11 4 21 9 23 10 3 27 38 183 351 5 10 23
44 40 75 70 129 128 252 128 270 0 10 9 27 20 37 11 10 20 27 20 38 0 11 11
35 25 53 21 27 84 151 131 255 6 13 37 74 70 134 33 61 70 135 83 165 12 30
31 73 42 96 10 22 19 45 19 51 0 6 7 16 16 24 17 14 124 221 124 240 0 6 15
37 34 68 51 84 146 277 146 296 0 9 9 28 20 42 11 14 20 33 20 41 0 9 8 25 19
36 23 26 121 217 121 237 0 8 8 26 17 39 20 29 54 89 81 145 11 22 27 46 36
54 9 7 16 23 16 35 0 11 9 35 20 51 11 17 20 39 20 49 0 11 6 27 14 35 20 23
166 316 166 334 0 9 4 18 9 21 5 3 27 41 48 83 22 43 52 96 67 117 14 21 26
46 26 55 0 10 7 26 15 37 8 10 15 28 15 39 1 11 14 40 30 65 39 62 150 288
150 305 0 8 4 16 9 19 5 3 30 47 56 98 26 51 56 104 66 117 11 13 19 31 19 40
0 10 7 26 15 37 8 10 15 29 15 40 0 12 8 32 18 45 11 13 24 39 31 58 6 19 17
42 25 50 19 22 116 215 116 231 0 7 6 21 14 29 8 9 36 57 62 106 26 50 53 101
61 115 7 14 13 30 13 36 0 6 7 17 15 24 8 7 15 22 15 34 0 12 6 30 14 41 28
42 166 317 166 332 0 9 6 24 14 32 8 9 34 56 59 104 25 48 50 93 55 100 5 7
13 23 17 37 4 14 16 36 26 49 11 13 19 31 19 40 0 10 27 69 60 132 33 62 73
141 89 174 96 196 190 377 202 389 5 6 9 22 9 37 0 15 4 30 9 34 6 3 40 65 77
138 37 72 73 141 80 152 8 11 14 27 14 37 0 10 15 39 33 65 33 47 58 95 112
218 54 121 182 372 207 404 10 13 18 35 18 48 0 14 13 42 28 62 16 20 40 61
54 91 68 144 88 190 88 201 0 7 6 20 14 28 7 9 42 72 77 141 34 69 71 137 81
152 10 14 18 36 18 47 0 12 15 42 33 68 19 27 45 73 59 103 34 73 194 397 235
474 17 34 32 69 32 79 1 9 16 39 34 65 18 26 45 72 59 102 15 30 42 89 62 130
20 41 42 86 51 100 33 56 165 333 165 347 0 8 13 32 29 52 15 20 42 65 58 101
42 89 101 210 118 240 8 14 42 81 75 150 34 69 66 129 71 134 5 6 9 20 9 33 0
13 16 45 35 71 19 27 48 80 65 118 17 38 42 90 56 115 13 26 24 56 24 66 0 11
8 27 18 36 9 9 28 37 41 64 13 26 28 55 33 63 5 8 18 35 29 60 11 25 29 61 40
81 10 20 19 48 19 63 0 14 8 30 18 35 9 5 31 35 47 68 17 32 37 69 46 83 9 14
19 38 23 54 4 17 16 42 26 56 10 14 22 39 26 56 4 16 13 36 20 44 15 18 114
211 114 223 0 4 11 25 25 45 14 20 25 47 25 60 0 13 12 38 26 55 14 16 43 69
65 116 22 47 47 97 55 111 8 14 22 41 30 60 8 19 20 44 26 55 58 103 158 312
158 332 0 14 10 36 23 48 12 13 38 48 57 79 42 69 53 76 105 67 38 -6 40 -8
39 -41 -1 -19 -6 -60 -12 -90 -6 -30 -16 -89 -22 -130 -6 -41 -18 -102 -26
-135 -9 -32 -22 -102 -29 -155 -8 -52 -19 -115 -25 -140 -5 -25 -24 -124 -41
-220 -16 -96 -34 -188 -39 -205 -5 -16 -14 -59 -20 -95 -5 -36 -14 -85 -19
-110 -5 -25 -16 -90 -25 -145 -13 -88 -23 -142 -65 -350 -6 -27 -18 -95 -26
-150 -9 -55 -23 -127 -30 -160 -8 -33 -21 -105 -30 -160 -10 -55 -21 -113 -26
-128 -4 -15 -11 -62 -15 -105 -4 -42 -11 -87 -15 -100 -15 -40 -39 -165 -39
-202 0 -20 -4 -40 -9 -45 -9 -10 -67 -324 -81 -445 -5 -36 -13 -77 -19 -92 -5
-14 -13 -55 -16 -90 -4 -34 -13 -85 -20 -113 -12 -46 -65 -325 -101 -540 -8
-49 -20 -112 -25 -140 -18 -95 -49 -260 -58 -310 -5 -27 -14 -70 -20 -95 -6
-25 -11 -64 -11 -88 0 -23 -7 -59 -15 -79 -9 -20 -20 -78 -25 -127 -5 -50 -14
-107 -20 -126 -6 -19 -18 -66 -26 -105 -15 -68 -20 -97 -49 -275 -14 -91 -20
-123 -66 -350 -16 -80 -29 -162 -29 -183 0 -21 -6 -53 -14 -72 -8 -19 -18 -71
-22 -117 -3 -46 -13 -95 -20 -109 -7 -14 -18 -62 -23 -105 -6 -43 -22 -133
-36 -199 -15 -66 -30 -147 -35 -180 -26 -185 -33 -224 -45 -260 -8 -22 -16
-66 -19 -97 -3 -31 -15 -94 -26 -139 -10 -45 -22 -121 -26 -168 -4 -47 -13
-102 -21 -121 -7 -19 -18 -68 -24 -110 -6 -41 -16 -97 -24 -125 -8 -27 -17
-84 -21 -125 -3 -41 -14 -102 -24 -135 -10 -33 -33 -145 -51 -250 -35 -207
-38 -229 -63 -355 -35 -176 -54 -286 -55 -319 -1 -18 -6 -42 -11 -52 -6 -10
-17 -67 -25 -126 -9 -60 -19 -120 -24 -135 -5 -14 -15 -70 -21 -125 -7 -54
-17 -103 -21 -109 -5 -6 -16 -56 -24 -110 -18 -125 -42 -254 -66 -366 -10 -48
-24 -122 -30 -165 -5 -43 -17 -103 -25 -134 -8 -31 -14 -72 -14 -91 0 -19 -7
-57 -14 -84 -15 -48 -55 -265 -82 -434 -7 -47 -18 -103 -24 -125 -6 -22 -14
-67 -19 -100 -10 -74 -48 -280 -77 -415 -17 -80 -49 -260 -64 -360 -7 -41 -22
-120 -35 -175 -12 -55 -30 -154 -40 -220 -9 -66 -23 -142 -30 -170 -8 -27 -18
-81 -24 -120 -6 -38 -15 -90 -20 -115 -5 -25 -14 -76 -21 -115 -25 -155 -30
-182 -45 -235 -9 -30 -20 -76 -25 -102 -5 -27 -19 -68 -30 -92 -11 -25 -20
-52 -20 -61 0 -9 -13 -44 -29 -78 -16 -34 -32 -73 -36 -87 -8 -25 -36 -71
-134 -220 -61 -93 -376 -420 -404 -420 -9 0 -29 -16 -44 -35 -16 -20 -37 -35
-48 -35 -12 0 -25 -4 -30 -9 -23 -21 -128 -71 -211 -99 -120 -41 -251 -71
-404 -93 -172 -24 -198 -27 -345 -43 -82 -9 -175 -21 -205 -26 -30 -5 -136
-14 -235 -20 -193 -12 -225 -21 -225 -64 0 -13 -4 -36 -10 -52 -5 -16 -22 -96
-36 -179 -41 -237 -50 -283 -74 -399 -16 -81 -19 -111 -10 -120 8 -8 773 -11
2988 -10 1637 1 2997 3 3021 5 l44 4 14 65 c28 133 42 208 58 305 15 92 33
185 66 339 12 56 12 60 -9 76 -15 13 -49 20 -114 25 -51 4 -124 13 -163 21
-38 8 -95 19 -125 25 -30 6 -82 18 -115 26 -33 8 -80 20 -105 25 -172 38 -448
123 -493 152 -12 9 -42 22 -65 30 -24 9 -54 29 -68 45 -14 17 -34 33 -44 36
-20 6 -116 113 -177 197 -44 59 -108 209 -123 283 -6 33 -16 74 -23 90 -14 37
-13 375 3 488 5 42 15 114 21 160 6 45 17 105 24 132 7 28 15 75 19 105 3 30
12 84 20 120 33 144 57 272 71 379 8 62 19 120 24 129 5 9 14 62 20 117 7 55
19 120 26 145 8 25 22 88 30 140 8 52 21 126 30 165 8 38 15 83 15 98 0 16 6
49 14 75 8 26 19 88 26 137 6 50 18 113 25 140 7 28 18 79 25 115 6 36 16 84
21 107 5 24 12 78 15 120 4 43 11 84 17 91 6 7 16 48 22 90 17 106 53 316 66
377 5 28 17 86 25 130 16 90 21 117 70 368 19 99 34 196 34 217 0 21 6 53 14
72 8 18 19 74 24 123 6 50 15 103 21 118 6 16 18 70 27 120 9 51 19 110 24
132 4 22 13 76 20 120 6 44 18 107 26 140 8 33 19 92 24 130 6 39 17 99 25
135 8 36 15 76 15 89 0 14 4 38 9 55 14 42 38 178 46 251 4 33 11 67 15 75 4
8 13 51 19 95 6 44 15 100 20 125 5 25 16 86 25 135 9 50 21 110 27 135 6 25
17 86 25 135 7 50 18 108 23 130 6 22 26 130 46 240 20 110 42 232 50 270 8
39 17 97 20 130 4 33 13 83 20 110 7 28 21 95 30 150 10 55 21 112 26 128 4
15 11 55 14 90 3 34 12 89 20 122 8 33 21 103 30 155 17 98 41 222 71 370 9
47 20 110 24 140 9 63 46 265 60 327 5 23 14 82 20 131 5 49 17 106 25 126 9
21 18 68 21 104 3 37 12 87 20 112 7 25 32 151 55 280 23 129 45 255 50 280 5
25 12 70 15 100 3 30 12 78 19 105 8 28 17 75 20 105 4 30 13 78 20 105 8 28
21 97 30 155 8 58 22 130 30 160 8 30 15 74 15 97 0 23 5 54 11 70 10 26 44
207 69 368 6 39 20 109 31 156 10 47 19 99 19 115 0 17 7 57 16 89 9 33 23 98
31 145 8 47 18 105 23 130 5 25 14 79 20 120 6 41 20 116 30 165 10 50 31 158
45 240 14 83 32 179 41 215 8 36 19 97 25 135 5 39 14 93 19 120 6 28 16 88
25 135 8 47 23 128 34 180 12 52 21 111 21 131 0 20 9 62 20 94 11 32 20 75
20 96 0 21 6 58 14 81 8 24 18 61 21 83 8 48 21 92 48 163 11 30 23 70 28 90
15 73 62 190 135 338 65 130 85 161 153 235 44 46 110 108 148 137 78 61 195
132 217 132 9 0 41 12 73 26 32 14 107 39 167 56 60 16 123 36 140 43 17 7 58
17 91 23 102 16 298 62 310 72 6 5 55 13 108 18 53 5 103 15 112 22 9 7 68 16
148 21 72 5 152 11 176 15 55 7 91 41 91 85 0 17 9 68 19 113 11 44 24 122 31
171 6 50 18 110 25 135 14 47 38 211 39 270 l1 35 -2283 3 c-1516 1 -2290 -1
-2302 -8 -12 -7 -28 -41 -45 -98 -14 -48 -42 -132 -62 -187 -19 -55 -41 -120
-48 -145 -7 -25 -23 -67 -35 -95 -12 -27 -29 -72 -37 -100 -8 -27 -28 -76 -44
-107 -16 -32 -29 -71 -29 -88 0 -17 -9 -48 -20 -68 -42 -81 -110 -248 -110
-274 0 -8 -8 -26 -19 -39 -10 -13 -22 -39 -26 -58 -7 -34 -31 -90 -95 -226
-21 -44 -59 -129 -85 -190 -26 -60 -54 -119 -61 -130 -8 -11 -14 -25 -14 -33
0 -7 -34 -84 -76 -170 -194 -398 -290 -596 -481 -982 -113 -228 -244 -494
-290 -590 -99 -205 -138 -284 -197 -400 -24 -47 -54 -110 -67 -140 -13 -30
-38 -80 -55 -110 -17 -30 -35 -66 -39 -80 -4 -14 -21 -44 -36 -67 -16 -23 -29
-48 -29 -56 0 -8 -38 -90 -84 -183 -181 -365 -266 -542 -266 -556 0 -9 -8 -26
-19 -39 -10 -13 -46 -80 -80 -149 -34 -69 -66 -129 -71 -134 -6 -6 -10 -22
-10 -37 0 -15 -7 -33 -17 -40 -17 -15 -73 -126 -73 -147 0 -7 -15 -34 -33 -61
-18 -26 -39 -63 -46 -82 -7 -19 -19 -47 -28 -64 -63 -119 -133 -266 -133 -281
0 -10 -6 -25 -14 -33 -7 -9 -22 -34 -33 -56 -11 -22 -27 -53 -35 -70 -54 -101
-98 -198 -98 -216 0 -12 -13 -38 -29 -58 -16 -20 -50 -81 -76 -136 -26 -55
-94 -195 -151 -310 -57 -116 -104 -217 -104 -224 0 -7 -9 -24 -20 -38 -11 -14
-20 -33 -20 -43 0 -10 -9 -28 -19 -41 -25 -32 -121 -223 -121 -241 0 -7 -6
-22 -14 -33 -30 -43 -166 -317 -166 -334 0 -10 -8 -29 -19 -42 -10 -13 -51
-89 -90 -169 -40 -80 -113 -225 -162 -323 -49 -97 -89 -185 -89 -196 0 -10
-12 -36 -26 -57 -14 -21 -41 -68 -59 -104 -17 -36 -46 -93 -63 -128 -18 -34
-32 -68 -32 -75 0 -6 -7 -25 -16 -42 -9 -16 -44 -84 -79 -150 -34 -66 -69
-133 -78 -150 -9 -16 -17 -35 -17 -41 0 -7 -27 -64 -60 -128 -32 -64 -76 -154
-96 -199 -20 -45 -45 -93 -54 -107 -9 -14 -36 -68 -60 -120 -24 -52 -56 -116
-72 -141 -15 -25 -28 -52 -28 -59 0 -12 -70 -155 -140 -285 -15 -27 -30 -63
-34 -79 -4 -16 -16 -41 -27 -54 -10 -14 -19 -33 -19 -43 0 -10 -4 -20 -9 -24
-14 -8 -131 -236 -131 -253 0 -8 -9 -25 -20 -39 -11 -14 -20 -34 -20 -44 0
-10 -4 -20 -9 -23 -4 -3 -34 -59 -65 -123 -31 -65 -68 -139 -81 -166 -14 -26
-25 -53 -25 -60 0 -8 -9 -22 -20 -32 -11 -10 -20 -22 -20 -27 0 -5 -15 -42
-34 -81 -18 -40 -42 -90 -51 -112 -10 -22 -26 -50 -35 -62 -10 -13 -21 -40
-25 -60 -4 -21 -12 -45 -19 -53 -14 -16 -59 -103 -96 -185 -12 -27 -29 -61
-36 -75 -8 -14 -106 -211 -219 -438 -197 -397 -207 -413 -232 -410 -14 2 -29
10 -34 18 -7 15 -33 276 -31 320 1 14 -5 57 -13 95 -14 69 -20 119 -50 410 -8
83 -22 197 -30 255 -8 58 -20 157 -25 220 -6 63 -15 144 -20 180 -6 36 -15
110 -20 165 -5 55 -14 127 -20 160 -6 33 -17 132 -25 220 -9 88 -20 180 -25
205 -5 25 -17 126 -26 225 -9 99 -20 205 -24 235 -4 30 -12 109 -19 175 -6 66
-16 138 -21 160 -5 22 -16 117 -24 210 -9 94 -21 195 -26 225 -9 47 -34 270
-44 390 -2 19 -8 73 -14 120 -6 47 -16 130 -22 185 -6 55 -15 129 -20 165 -5
36 -12 106 -16 155 -4 50 -11 101 -16 114 -5 14 -16 105 -23 204 -8 98 -19
187 -25 197 -5 10 -10 45 -10 77 -1 58 -15 202 -45 433 -30 240 -55 456 -64
550 -5 52 -16 154 -25 225 -9 72 -21 173 -27 225 -6 52 -14 116 -19 142 -5 26
-12 91 -15 145 -4 54 -13 132 -22 173 -21 102 -14 285 14 355 11 28 30 91 42
140 12 50 30 119 41 155 51 169 60 202 85 295 14 55 39 141 56 192 16 50 29
105 29 122 0 16 4 32 9 35 10 7 41 105 70 221 31 127 47 184 78 280 44 132 63
199 63 224 0 12 6 34 14 50 8 15 30 88 50 162 19 74 42 157 51 184 9 28 25 84
36 125 11 41 36 127 55 190 45 147 62 207 69 247 4 18 15 50 26 72 10 22 19
55 19 73 0 18 7 42 15 52 8 11 15 27 15 36 0 17 46 189 77 285 8 28 21 75 28
105 8 30 25 89 38 130 14 41 37 118 52 170 15 52 36 127 47 165 11 39 28 104
38 145 10 41 32 116 48 165 17 50 49 160 72 245 23 85 51 176 61 202 10 26 19
55 19 65 0 31 129 425 193 588 49 125 216 422 294 523 21 27 51 66 68 88 38
50 214 236 236 249 10 6 50 39 89 75 39 35 82 69 94 75 12 5 42 25 67 43 58
43 195 132 203 132 3 0 60 29 127 65 66 36 150 76 187 89 37 13 114 43 172 66
58 23 122 46 144 51 21 5 51 16 67 24 15 8 41 15 56 15 15 0 71 12 123 25 52
14 144 30 205 35 85 7 113 13 122 27 16 21 19 799 3 823 -8 13 -344 15 -2920
15 -2871 0 -2912 0 -2926 -19 -11 -16 -14 -88 -14 -402 l0 -383 23 -27 c23
-26 29 -28 158 -36 74 -4 188 -17 254 -27 66 -11 154 -22 195 -26 41 -3 98
-13 125 -20 28 -8 86 -19 130 -25 44 -6 100 -18 125 -26 25 -7 72 -18 105 -23
33 -5 87 -18 120 -29 33 -11 119 -39 190 -62 72 -24 148 -54 171 -66 22 -13
46 -24 53 -24 19 0 93 -36 130 -64 19 -14 40 -26 46 -26 5 0 50 -31 99 -70 49
-38 93 -70 97 -70 11 0 97 -107 133 -165 42 -69 77 -170 87 -255 5 -41 10 -82
11 -90 9 -54 -41 -583 -63 -669 -10 -41 -19 -94 -19 -119 0 -24 -9 -79 -19
-121 -11 -42 -25 -103 -31 -136 -6 -33 -18 -85 -26 -115 -8 -30 -19 -77 -23
-105 -20 -117 -43 -224 -61 -285 -11 -36 -22 -85 -26 -110 -3 -25 -14 -71 -25
-103 -10 -31 -19 -73 -19 -92 0 -19 -6 -54 -14 -77 -16 -47 -71 -261 -91 -350
-7 -31 -15 -61 -19 -66 -3 -5 -10 -40 -15 -77 -5 -36 -15 -73 -22 -81 -13 -16
-65 -19 -74 -4 -7 11 -40 250 -54 390 -6 58 -15 139 -20 180 -6 41 -15 118
-20 170 -15 157 -51 461 -61 520 -5 30 -14 111 -20 180 -6 69 -16 157 -21 195
-5 39 -19 150 -29 248 -11 98 -21 181 -24 185 -2 4 -11 88 -20 187 -26 283
-26 285 -47 306 -19 19 -65 19 -2309 19 -2277 0 -2290 0 -2310 -20 -13 -13
-20 -33 -20 -59 0 -21 -6 -56 -14 -78 -13 -36 -25 -101 -46 -238 -10 -60 -45
-257 -62 -338 -8 -42 -8 -61 0 -69 6 -6 68 -16 139 -23 70 -8 160 -21 198 -30
39 -9 93 -19 120 -21 28 -3 68 -13 90 -24 48 -22 154 -57 211 -70 101 -22 276
-115 468 -250 25 -17 212 -209 232 -238 7 -10 48 -88 91 -173 116 -227 165
-399 183 -644 21 -280 3 -782 -35 -980 -7 -38 -21 -124 -30 -190 -10 -66 -21
-133 -25 -150 -5 -16 -12 -55 -15 -85 -4 -30 -13 -82 -20 -115 -7 -33 -21
-105 -30 -160 -10 -55 -33 -179 -52 -275 -19 -96 -39 -204 -43 -240 -5 -36
-16 -101 -25 -145 -40 -201 -65 -343 -65 -371 0 -17 -7 -48 -15 -67 -8 -20
-17 -69 -21 -109 -3 -40 -14 -104 -24 -143 -10 -38 -22 -97 -25 -130 -4 -33
-11 -73 -16 -90 -14 -48 -69 -347 -86 -468 -7 -51 -40 -74 -79 -55 -23 11 -33
29 -60 118 -18 58 -45 139 -59 180 -14 41 -25 84 -25 95 0 11 -9 37 -20 58
-11 20 -20 47 -20 58 0 12 -23 92 -51 178 -54 164 -71 219 -114 366 -14 50
-35 109 -46 133 -10 23 -19 50 -19 60 0 21 -95 319 -110 344 -5 10 -10 33 -10
51 0 18 -9 50 -20 72 -11 22 -20 47 -20 57 0 22 -27 106 -44 138 -8 14 -17 43
-21 65 -4 22 -32 114 -61 204 -30 89 -54 169 -54 176 0 7 -20 73 -44 146 -25
74 -49 148 -54 164 -13 40 -57 185 -78 260 -9 33 -25 81 -35 107 -11 26 -19
54 -19 63 0 16 -72 239 -90 280 -10 21 -35 115 -49 177 -4 20 -17 60 -29 90
-11 29 -31 87 -43 128 -12 41 -37 120 -55 175 -43 129 -83 266 -99 335 -7 30
-19 71 -28 90 -9 19 -32 87 -51 150 -101 324 -138 450 -150 495 -7 28 -24 79
-38 115 -14 36 -47 139 -73 230 -26 91 -53 176 -60 190 -6 14 -22 63 -35 110
-22 82 -71 242 -112 365 -41 124 -130 413 -149 485 -11 41 -28 86 -37 100 -9
14 -19 48 -23 75 -8 55 -30 127 -60 193 -10 23 -19 50 -19 60 0 9 -11 53 -24
97 -14 44 -39 126 -57 182 -17 56 -37 110 -45 120 -7 10 -14 36 -14 58 0 22
-7 51 -15 65 -8 14 -14 37 -15 52 0 24 -9 47 -54 138 -9 19 -21 26 -51 29 -99
9 -1029 10 -1046 0 -10 -5 -23 -28 -29 -52 -6 -23 -22 -76 -35 -117 -109 -338
-210 -659 -231 -730 -14 -47 -32 -105 -40 -130 -9 -25 -22 -72 -30 -104 -9
-33 -22 -72 -30 -87 -8 -15 -14 -40 -14 -54 0 -14 -6 -38 -14 -53 -15 -29 -66
-179 -84 -247 -6 -22 -20 -67 -31 -100 -11 -33 -30 -94 -42 -135 -12 -41 -52
-167 -89 -280 -37 -113 -77 -241 -89 -285 -13 -44 -29 -94 -36 -111 -8 -18
-17 -49 -21 -70 -4 -22 -18 -67 -30 -102 -13 -34 -24 -74 -24 -88 0 -13 -8
-41 -18 -62 -10 -20 -33 -84 -51 -142 -18 -58 -41 -124 -52 -148 -10 -23 -19
-50 -19 -59 0 -10 -11 -51 -25 -93 -14 -41 -48 -149 -75 -240 -28 -91 -69
-221 -91 -290 -21 -69 -47 -150 -55 -180 -15 -51 -38 -118 -69 -200 -7 -19
-20 -64 -29 -100 -8 -36 -36 -125 -61 -199 -25 -74 -45 -146 -45 -160 0 -15
-7 -36 -15 -49 -16 -21 -58 -148 -96 -287 -17 -63 -104 -343 -130 -420 -51
-151 -83 -256 -86 -285 -2 -19 -10 -48 -18 -65 -32 -73 -84 -226 -101 -295 -9
-41 -23 -88 -30 -105 -7 -16 -32 -91 -54 -165 -23 -74 -50 -160 -60 -190 -10
-30 -28 -89 -41 -130 -19 -64 -102 -327 -143 -455 -28 -87 -35 -111 -42 -148
-3 -20 -10 -39 -14 -42 -4 -3 -18 -37 -30 -77 -12 -40 -30 -98 -40 -128 -10
-30 -26 -82 -35 -115 -9 -33 -25 -85 -35 -115 -10 -30 -30 -95 -45 -145 -15
-49 -42 -132 -61 -184 -19 -52 -34 -102 -34 -111 0 -10 -8 -39 -19 -66 -10
-27 -26 -76 -36 -109 -28 -98 -56 -186 -81 -258 -13 -38 -24 -82 -24 -98 0
-16 -6 -40 -14 -52 -23 -35 -113 -316 -131 -407 -4 -19 -11 -40 -16 -46 -5 -6
-18 -42 -28 -80 -27 -96 -43 -148 -99 -314 -27 -80 -53 -163 -59 -185 -10 -37
-85 -283 -117 -385 -8 -25 -28 -83 -44 -130 -44 -128 -97 -295 -122 -385 -12
-44 -30 -101 -41 -127 -10 -26 -19 -59 -19 -75 0 -15 -9 -46 -19 -68 -11 -22
-28 -69 -39 -105 -11 -36 -36 -117 -56 -180 -20 -63 -47 -151 -60 -195 -13
-44 -29 -93 -35 -110 -6 -16 -22 -70 -36 -120 -15 -49 -33 -105 -41 -124 -8
-18 -21 -59 -29 -90 -7 -31 -30 -101 -49 -156 -19 -55 -46 -140 -61 -190 -26
-92 -104 -343 -131 -425 -8 -25 -21 -67 -29 -93 -21 -74 -47 -96 -76 -61 -20
24 -48 115 -49 157 0 21 -5 48 -12 60 -11 21 -49 152 -88 309 -11 42 -29 104
-40 137 -11 33 -20 73 -20 88 0 16 -7 39 -16 51 -9 13 -20 46 -24 75 -11 73
-54 227 -70 257 -8 14 -17 50 -21 80 -6 58 -24 135 -41 185 -6 17 -21 73 -35
125 -13 52 -30 118 -38 145 -52 181 -83 299 -111 410 -21 86 -72 276 -100 370
-13 44 -31 111 -39 149 -9 37 -22 78 -29 90 -8 11 -16 47 -20 79 -3 31 -15 85
-26 120 -11 34 -26 89 -35 122 -9 33 -33 128 -55 210 -22 83 -49 187 -60 232
-29 120 -68 253 -85 290 -8 17 -15 45 -15 63 0 17 -4 39 -10 49 -5 10 -16 51
-24 91 -9 40 -22 83 -31 96 -8 13 -15 39 -15 59 0 20 -8 61 -18 93 -10 31 -28
93 -40 137 -12 44 -37 137 -57 206 -19 69 -35 131 -35 138 0 7 -8 31 -19 54
-10 23 -21 66 -25 95 -4 29 -25 111 -46 182 -22 71 -40 137 -40 147 -1 10 -8
36 -16 58 -8 22 -18 58 -23 80 -11 47 -88 346 -101 390 -5 17 -17 59 -25 95
-22 90 -43 165 -65 235 -11 33 -20 69 -20 80 0 11 -13 63 -29 115 -37 119 -58
194 -80 290 -10 41 -25 89 -34 107 -10 18 -17 47 -17 65 0 18 -9 60 -20 93
-17 53 -63 222 -105 385 -8 30 -29 105 -46 165 -17 61 -37 139 -45 175 -8 35
-21 85 -29 110 -15 45 -42 145 -69 250 -27 105 -38 145 -62 225 -13 44 -28
107 -35 140 -6 33 -15 68 -20 77 -5 9 -15 45 -23 80 -13 59 -28 118 -91 343
-14 50 -32 121 -40 158 -8 37 -21 80 -28 95 -8 15 -19 59 -26 97 -7 39 -24
105 -37 147 -14 43 -34 112 -44 155 -29 127 -69 272 -80 292 -5 11 -10 33 -10
49 0 17 -9 61 -21 98 -12 37 -39 138 -60 223 -21 86 -43 165 -49 176 -5 11
-19 65 -30 120 -11 55 -38 168 -60 250 -22 83 -47 184 -55 225 -9 41 -22 100
-30 130 -7 30 -19 96 -25 145 -7 50 -19 119 -28 155 -10 43 -15 118 -16 220
-1 150 0 157 26 205 37 71 103 134 200 191 10 6 26 18 36 27 10 10 33 17 50
17 17 0 56 11 87 25 30 13 81 29 112 34 30 6 62 16 69 22 7 5 41 12 76 15 35
3 109 16 165 29 57 14 120 25 140 25 21 0 67 6 103 14 36 8 115 19 175 25 61
7 146 17 190 22 198 24 261 30 422 37 152 7 176 10 200 28 l28 21 3 395 c2
359 1 397 -14 409 -15 12 -514 14 -3243 15 -1774 1 -3248 -2 -3274 -5z m16916
-3605 c9 -9 18 -60 26 -142 6 -71 16 -154 21 -184 6 -30 14 -104 20 -165 5
-60 16 -157 24 -215 15 -101 25 -197 46 -435 6 -60 17 -159 26 -220 9 -60 20
-154 25 -208 5 -53 15 -154 24 -225 8 -70 21 -190 30 -267 8 -77 20 -178 26
-225 19 -145 40 -343 44 -398 2 -28 8 -74 14 -101 5 -26 13 -97 16 -157 4 -60
11 -122 16 -139 5 -16 15 -104 24 -195 8 -91 21 -219 29 -285 8 -66 22 -187
31 -270 32 -307 45 -422 55 -480 6 -33 15 -116 20 -185 6 -69 17 -159 25 -201
8 -42 15 -100 15 -130 0 -30 9 -128 21 -219 34 -280 49 -407 75 -640 14 -124
30 -268 36 -320 6 -52 11 -156 12 -230 1 -127 -1 -143 -36 -270 -21 -74 -43
-155 -49 -180 -6 -25 -18 -67 -27 -95 -8 -27 -21 -79 -28 -115 -6 -36 -21 -92
-32 -125 -21 -62 -69 -233 -97 -345 -9 -36 -27 -100 -41 -142 -13 -43 -24 -85
-24 -95 0 -10 -14 -60 -30 -112 -17 -51 -30 -100 -30 -107 0 -8 -16 -71 -36
-142 -20 -70 -56 -203 -81 -297 -84 -322 -92 -350 -103 -380 -6 -16 -31 -106
-55 -200 -24 -93 -48 -183 -54 -198 -6 -16 -11 -41 -11 -57 0 -15 -9 -47 -20
-71 -11 -24 -20 -55 -20 -68 0 -14 -15 -72 -34 -130 -36 -114 -55 -182 -65
-246 -9 -53 -17 -65 -45 -65 -29 0 -45 19 -56 62 -4 18 -20 71 -34 118 -15 47
-35 114 -45 150 -10 36 -26 79 -35 95 -9 17 -16 39 -16 50 0 18 -18 80 -126
418 -19 59 -34 113 -34 120 0 6 -9 34 -19 62 -20 54 -84 256 -176 560 -20 66
-41 134 -47 150 -5 17 -18 57 -28 90 -10 33 -34 112 -55 175 -20 63 -45 144
-56 180 -10 36 -24 85 -32 110 -8 25 -41 126 -72 225 -32 99 -64 207 -72 240
-8 33 -23 80 -33 105 -10 25 -22 63 -28 85 -11 43 -36 120 -54 170 -25 70 -32
144 -20 218 23 142 66 381 87 487 9 41 24 131 35 200 11 69 22 134 26 145 3
11 12 54 19 95 12 73 20 114 72 385 30 155 37 196 68 385 14 80 31 177 40 215
24 104 55 286 55 320 0 17 7 50 15 75 17 52 75 381 75 425 0 16 6 47 14 70 8
22 19 65 25 95 11 58 58 330 73 417 4 29 13 64 18 78 6 15 10 48 10 74 0 26 7
70 15 97 8 27 18 81 24 119 5 39 23 135 39 215 17 80 38 188 47 240 9 52 22
131 30 175 51 296 68 390 85 470 11 50 31 160 46 245 23 137 64 358 94 505 5
28 19 104 31 170 11 66 26 156 34 200 7 44 20 112 28 150 8 39 20 105 27 148
7 43 19 85 27 93 18 18 77 18 96 0z"/>
<path d="M23625 7123 c-71 -14 -135 -28 -141 -31 -6 -4 -39 -26 -73 -49 -34
-24 -67 -43 -73 -43 -14 0 -147 -142 -148 -157 0 -7 -16 -35 -35 -62 -23 -32
-44 -81 -62 -147 -26 -93 -28 -110 -27 -284 1 -161 4 -193 23 -244 11 -33 21
-69 21 -80 0 -12 8 -35 18 -52 9 -17 42 -76 72 -130 50 -91 71 -115 259 -302
112 -112 220 -214 240 -227 50 -31 206 -187 226 -225 9 -17 25 -40 36 -51 10
-10 19 -27 19 -38 0 -10 9 -30 20 -44 12 -14 31 -48 43 -74 20 -44 22 -63 22
-228 0 -170 -1 -182 -23 -221 -13 -22 -40 -53 -60 -70 -37 -29 -37 -29 -177
-29 -136 0 -141 1 -181 28 -67 46 -87 103 -93 278 -5 115 -10 151 -24 172
l-17 27 -214 0 c-183 0 -215 -2 -227 -16 -16 -20 -16 -142 -1 -299 14 -141 23
-180 56 -235 14 -25 26 -53 26 -62 0 -10 14 -33 30 -51 17 -19 30 -39 30 -43
0 -26 185 -163 240 -179 14 -4 33 -14 42 -22 9 -8 48 -19 86 -23 38 -4 93 -15
122 -25 48 -16 64 -16 154 -6 207 25 262 34 301 51 22 10 55 21 74 25 37 8 61
27 190 155 67 66 89 95 99 130 8 25 22 62 33 82 10 20 19 52 19 71 0 19 8 49
18 68 15 29 17 62 16 234 -1 137 -5 209 -13 230 -7 17 -19 58 -26 91 -8 38
-32 93 -62 143 -26 44 -60 101 -74 127 -14 25 -51 73 -81 107 -31 34 -68 76
-82 94 -15 17 -82 77 -149 133 -67 55 -126 104 -132 109 -5 5 -41 43 -78 85
-38 42 -75 76 -82 76 -8 0 -22 12 -32 28 -9 15 -37 52 -63 82 -75 90 -90 115
-112 197 -23 84 -29 221 -14 326 7 51 13 63 57 107 56 56 91 66 226 64 97 -2
157 -26 202 -81 36 -43 41 -66 50 -220 10 -174 -7 -163 257 -163 l213 0 17 31
c12 25 15 50 11 113 -8 131 -41 313 -60 334 -9 10 -17 24 -17 32 0 7 -8 27
-19 44 -10 17 -22 42 -26 55 -9 31 -139 159 -187 186 -20 11 -58 32 -85 46
-69 38 -271 79 -381 78 -48 -1 -145 -12 -217 -26z"/>
<path d="M26468 7145 c-3 -3 -52 -15 -109 -25 -57 -10 -124 -28 -149 -39 -25
-11 -52 -21 -61 -21 -19 0 -229 -198 -229 -215 0 -7 -15 -35 -33 -61 -37 -53
-57 -109 -82 -220 -14 -63 -16 -190 -13 -1096 3 -909 5 -1027 19 -1048 8 -14
21 -51 28 -82 7 -32 17 -60 23 -64 5 -3 18 -25 28 -48 20 -47 122 -162 183
-206 173 -124 444 -169 717 -119 63 11 126 27 140 35 14 7 42 20 63 28 50 20
84 46 174 135 42 42 84 94 95 117 10 24 23 46 28 49 5 3 17 32 26 63 8 31 23
77 32 102 15 41 17 136 17 1060 0 1069 1 1047 -45 1191 -10 31 -32 75 -49 99
-17 24 -31 49 -31 57 0 8 -44 58 -98 111 -112 111 -159 135 -342 174 -100 21
-319 36 -332 23z m197 -475 c22 -11 47 -20 56 -20 25 0 78 -68 89 -115 6 -22
17 -62 25 -89 13 -41 15 -182 15 -953 0 -884 0 -905 -20 -943 -11 -22 -20 -50
-20 -64 0 -36 -59 -109 -95 -117 -17 -4 -47 -14 -67 -23 -50 -22 -101 -20
-148 4 -22 11 -48 20 -58 20 -32 0 -89 72 -97 121 -4 24 -14 53 -21 64 -21 29
-21 1847 0 1902 8 21 17 53 20 71 8 49 62 122 89 122 12 0 38 9 57 19 47 27
124 27 175 1z"/>
<path d="M5817 7134 c-4 -4 -44 -11 -89 -15 -111 -11 -165 -23 -186 -43 -10
-8 -33 -19 -51 -22 -21 -5 -37 -16 -47 -35 -8 -16 -23 -29 -33 -29 -20 0 -121
-89 -121 -107 0 -6 -6 -16 -14 -22 -17 -14 -66 -105 -66 -122 0 -6 -9 -24 -21
-40 -11 -16 -24 -56 -30 -89 -5 -33 -14 -71 -19 -86 -6 -16 -10 -394 -10
-1022 1 -842 3 -1003 15 -1037 8 -22 15 -53 15 -68 0 -16 20 -71 45 -123 33
-69 63 -113 111 -164 37 -38 73 -70 81 -70 8 0 28 -16 46 -35 35 -37 154 -86
262 -106 174 -32 407 -14 560 43 101 37 140 63 235 158 82 81 160 224 160 292
0 25 7 54 18 68 16 23 17 91 20 1014 3 980 3 990 -19 1085 -33 147 -105 288
-194 376 -80 80 -208 158 -275 169 -25 4 -67 12 -95 18 -64 13 -288 22 -298
12z m143 -424 c19 -5 52 -13 74 -19 66 -16 131 -95 149 -180 17 -75 25 -1874
10 -1939 -7 -29 -13 -66 -13 -82 0 -20 -14 -47 -43 -82 -36 -44 -54 -57 -108
-75 -103 -36 -218 -25 -300 30 -40 27 -79 89 -79 125 0 17 -7 49 -15 69 -13
33 -15 157 -12 968 2 685 6 941 15 970 6 22 14 52 17 66 7 40 99 129 132 129
16 1 39 7 53 15 29 17 70 18 120 5z"/>
<path d="M21910 7125 c-120 -16 -206 -39 -241 -64 -14 -11 -42 -26 -60 -34
-46 -20 -175 -141 -199 -186 -100 -189 -121 -271 -122 -481 -1 -96 3 -164 10
-176 6 -12 16 -50 21 -85 13 -80 107 -274 165 -340 23 -25 55 -66 71 -90 17
-24 34 -46 38 -48 4 -1 36 -30 70 -63 34 -33 123 -112 197 -176 211 -181 293
-273 375 -422 36 -65 45 -91 59 -187 20 -140 20 -161 -3 -254 -21 -87 -60
-153 -99 -167 -121 -46 -233 -43 -343 8 -61 28 -100 144 -104 304 -1 67 -7
133 -13 149 l-12 27 -214 0 c-186 0 -215 -2 -227 -17 -21 -25 -23 -169 -4
-307 19 -140 38 -206 65 -231 11 -10 20 -31 20 -47 0 -18 13 -45 33 -70 96
-119 103 -126 259 -207 91 -48 250 -81 387 -81 166 0 369 53 466 120 65 46
159 150 202 225 46 81 57 109 73 185 7 30 16 71 21 91 5 20 9 106 9 190 -1
121 -5 169 -20 224 -11 39 -20 81 -20 93 0 13 -6 36 -14 50 -8 15 -28 56 -45
92 -43 89 -74 139 -113 180 -18 19 -37 43 -43 55 -13 27 -247 252 -358 344
-294 244 -422 459 -403 679 13 146 23 177 73 227 26 25 54 45 63 45 10 0 34 7
53 15 38 16 83 14 191 -8 47 -9 68 -20 101 -53 37 -35 45 -51 60 -120 10 -43
18 -118 19 -165 1 -57 6 -91 15 -102 12 -15 41 -17 228 -17 l214 0 16 37 c25
62 2 283 -44 423 -47 142 -170 298 -272 346 -31 15 -63 32 -71 39 -8 7 -31 15
-50 18 -19 3 -69 15 -110 26 -87 24 -219 26 -370 6z"/>
<path d="M17978 7102 c-54 -2 -70 -7 -78 -22 -7 -12 -9 -541 -8 -1587 l3
-1568 209 3 c115 1 213 5 217 8 5 3 9 486 9 1094 0 598 3 1095 6 1104 8 22 41
20 53 -2 5 -10 15 -65 21 -122 6 -58 17 -125 24 -150 8 -25 19 -97 26 -160 6
-63 15 -131 20 -150 5 -19 14 -73 20 -120 6 -47 20 -130 30 -185 10 -55 21
-125 25 -156 3 -31 13 -78 21 -104 7 -27 14 -65 14 -85 0 -21 6 -75 14 -121 8
-46 21 -136 30 -199 9 -63 23 -137 31 -165 8 -27 16 -79 19 -115 3 -36 14
-111 26 -168 11 -57 20 -118 20 -136 0 -21 8 -40 21 -52 19 -17 39 -19 178
-21 227 -2 251 8 251 106 0 21 5 51 10 67 13 37 57 303 76 464 8 69 21 148 29
175 8 28 17 79 20 115 3 36 12 97 20 135 8 39 17 104 21 145 3 41 13 95 20
120 7 25 18 90 24 145 6 55 18 123 25 150 8 28 17 84 20 125 4 41 15 116 26
165 10 50 24 134 30 188 14 110 27 138 56 121 17 -11 18 -62 20 -1104 2 -769
6 -1097 13 -1104 12 -12 441 -13 460 -1 7 4 10 508 10 1563 0 1394 -2 1560
-16 1580 -15 22 -16 22 -332 22 -181 0 -332 -4 -353 -10 -34 -10 -37 -14 -48
-68 -6 -31 -18 -111 -26 -177 -8 -66 -22 -156 -30 -200 -8 -44 -19 -120 -24
-170 -6 -49 -15 -115 -21 -145 -21 -124 -30 -187 -30 -233 0 -27 -5 -58 -12
-70 -6 -12 -17 -67 -24 -122 -6 -55 -26 -197 -44 -315 -17 -118 -40 -273 -50
-345 -21 -145 -33 -206 -44 -223 -4 -7 -21 -12 -37 -12 -37 0 -44 15 -59 145
-6 55 -18 136 -26 180 -8 44 -22 134 -30 200 -18 134 -26 196 -48 335 -8 52
-24 164 -35 248 -12 85 -26 172 -32 195 -5 23 -16 96 -24 162 -22 185 -52 383
-69 455 -9 36 -16 81 -16 101 0 73 7 71 -306 73 -153 0 -309 0 -346 -2z"/>
<path d="M2390 7082 c-20 -16 -20 -22 -10 -142 12 -144 23 -248 39 -375 16
-125 52 -478 63 -610 4 -60 13 -136 18 -167 11 -60 37 -318 46 -453 3 -44 10
-94 15 -110 5 -17 13 -91 19 -165 5 -74 14 -169 20 -210 6 -41 17 -142 26
-225 8 -82 19 -188 24 -235 5 -47 13 -134 19 -195 18 -193 31 -256 55 -264 24
-9 578 -14 618 -5 31 6 48 45 48 112 0 24 7 90 15 146 15 95 24 176 60 541 9
83 22 200 30 260 8 61 20 162 26 225 6 63 14 144 19 180 16 122 32 275 39 354
5 66 9 80 26 86 11 4 30 4 41 -1 19 -6 23 -20 33 -111 6 -57 16 -130 21 -163
5 -33 12 -96 15 -140 4 -44 15 -134 25 -200 10 -66 21 -166 24 -222 3 -56 10
-124 16 -150 5 -26 16 -122 25 -213 8 -91 22 -219 30 -285 8 -66 19 -167 25
-225 17 -161 19 -169 44 -185 18 -12 30 -13 50 -6 17 7 35 7 52 1 37 -15 404
-13 461 2 58 15 63 21 63 78 0 25 7 101 15 170 8 69 19 172 25 230 50 496 60
592 71 643 5 27 9 76 10 110 0 34 5 85 10 112 5 28 16 122 24 210 8 88 19 198
25 245 5 47 18 177 30 290 11 113 24 237 30 275 5 39 15 122 20 185 17 176 28
282 45 434 9 77 14 145 11 151 -8 23 -91 33 -236 29 -168 -5 -187 -8 -194 -32
-3 -9 -10 -87 -16 -172 -6 -85 -17 -209 -25 -275 -8 -66 -19 -181 -25 -255 -6
-74 -15 -173 -20 -220 -5 -47 -16 -164 -24 -260 -8 -96 -17 -197 -20 -225 -8
-76 -35 -347 -47 -465 -5 -58 -13 -145 -17 -193 -8 -89 -20 -113 -50 -102 -8
3 -18 5 -22 5 -16 0 -28 71 -40 225 -6 83 -19 227 -30 320 -11 94 -25 222 -31
285 -5 63 -14 153 -19 200 -5 47 -13 137 -19 200 -10 115 -45 446 -55 530 -3
25 -10 95 -16 155 -17 198 -27 258 -44 270 -10 8 -90 12 -245 12 -194 1 -236
-2 -263 -16 l-33 -16 -17 -160 c-10 -88 -22 -212 -28 -275 -9 -106 -25 -258
-65 -630 -9 -80 -23 -219 -30 -310 -8 -91 -19 -203 -25 -250 -5 -47 -14 -143
-20 -215 -14 -163 -28 -256 -42 -272 -16 -20 -56 -16 -68 8 -6 11 -15 71 -20
133 -5 62 -11 128 -14 147 -4 19 -11 90 -17 159 -6 69 -14 157 -19 195 -4 39
-13 140 -19 225 -6 85 -14 166 -17 179 -3 14 -10 74 -15 133 -20 241 -29 329
-43 448 -8 69 -20 201 -26 293 -6 93 -14 175 -17 183 -12 32 -47 38 -245 40
-172 2 -200 0 -218 -14z"/>
<path d="M7076 7084 c-14 -14 -16 -170 -16 -1574 0 -1519 0 -1559 19 -1572 14
-10 65 -13 206 -12 171 1 189 3 202 20 11 15 13 200 12 1101 0 595 2 1087 6
1093 11 19 45 11 54 -13 5 -13 12 -54 16 -92 4 -39 13 -110 22 -160 8 -49 21
-134 28 -189 8 -54 18 -119 24 -145 12 -56 49 -287 63 -391 5 -41 18 -109 29
-151 10 -42 19 -96 19 -120 0 -24 9 -96 20 -159 12 -63 29 -176 40 -250 11
-74 29 -189 40 -255 12 -66 26 -149 31 -185 9 -69 31 -99 73 -101 130 -5 290
-3 324 4 48 11 62 32 62 94 0 19 6 61 14 92 8 31 19 99 25 151 6 52 16 118 21
145 5 28 28 163 50 300 22 138 45 275 50 305 5 30 12 87 16 125 3 39 12 93 19
120 7 28 18 88 25 135 7 47 18 119 26 160 7 41 18 109 24 150 5 41 15 102 20
135 6 33 17 111 25 173 8 62 17 118 20 123 8 12 42 12 50 -1 3 -5 6 -502 5
-1104 0 -869 2 -1096 12 -1102 19 -12 451 -4 466 8 16 14 18 3133 2 3143 -20
12 -475 19 -508 7 -21 -7 -43 -7 -71 0 -57 14 -128 2 -146 -25 -15 -24 -32
-109 -45 -232 -5 -44 -18 -136 -29 -205 -12 -69 -21 -141 -21 -160 0 -20 -7
-62 -15 -93 -8 -32 -19 -94 -25 -140 -6 -45 -14 -109 -19 -142 -5 -33 -14 -96
-20 -140 -6 -44 -19 -125 -27 -180 -9 -55 -22 -145 -29 -200 -8 -55 -23 -163
-34 -240 -11 -77 -25 -173 -31 -213 -13 -92 -23 -112 -58 -112 -36 0 -52 17
-52 52 0 15 -4 47 -10 70 -5 24 -21 133 -35 243 -15 110 -32 234 -40 275 -8
41 -19 118 -25 170 -6 52 -17 129 -25 170 -8 41 -19 120 -25 175 -6 55 -15
114 -21 131 -5 17 -16 83 -24 145 -28 219 -55 405 -70 478 -8 40 -15 87 -15
105 0 42 -10 55 -51 66 -19 6 -172 10 -346 10 -270 0 -314 -2 -327 -16z"/>
<path d="M9715 7093 c-27 -2 -58 -11 -67 -20 -17 -15 -18 -100 -18 -1573 0
-1197 3 -1559 12 -1568 9 -9 169 -12 663 -11 357 0 670 4 695 7 l45 7 3 201
c2 178 0 203 -14 215 -14 11 -98 15 -443 17 -234 2 -430 7 -434 11 -11 11 -11
931 0 941 4 5 158 10 341 13 243 4 336 8 347 17 12 10 15 48 15 215 0 176 -2
204 -16 209 -9 3 -163 6 -342 6 -180 0 -333 4 -340 8 -9 6 -13 105 -15 431 -2
415 -2 422 18 426 11 2 206 6 434 7 405 3 413 4 430 24 15 18 17 46 15 208 -1
130 -5 191 -13 199 -9 9 -167 12 -639 13 -345 0 -649 -1 -677 -3z"/>
<path d="M11415 7092 c-27 -2 -55 -8 -62 -14 -10 -8 -13 -319 -13 -1575 0
-1480 1 -1564 18 -1570 17 -7 35 -8 147 -5 33 1 101 1 152 0 150 -3 133 -136
133 1052 0 777 3 1019 12 1028 17 17 52 15 71 -5 8 -10 20 -38 27 -63 6 -25
17 -61 24 -80 7 -19 17 -57 21 -84 4 -28 15 -72 26 -98 10 -27 19 -61 19 -76
1 -15 8 -45 16 -67 15 -39 25 -79 57 -215 9 -36 27 -98 41 -139 14 -41 26 -82
26 -90 0 -15 15 -67 66 -231 13 -41 24 -84 24 -94 0 -11 11 -51 24 -90 14 -39
31 -102 39 -141 9 -38 27 -108 40 -155 14 -47 40 -139 57 -205 38 -145 68
-226 88 -242 20 -17 448 -11 480 6 l22 12 0 1564 c0 1240 -3 1565 -12 1572
-18 11 -411 12 -425 1 -9 -7 -12 -220 -12 -895 0 -937 1 -925 -44 -908 -19 8
-37 56 -37 99 0 17 -8 58 -19 91 -58 183 -71 227 -71 250 0 13 -9 53 -20 87
-11 35 -38 133 -61 218 -22 85 -44 166 -49 180 -5 14 -12 41 -15 60 -11 56
-55 202 -64 214 -5 6 -12 33 -16 61 -4 27 -18 87 -31 132 -13 46 -24 91 -24
101 0 9 -6 29 -14 44 -8 14 -17 46 -21 70 -4 24 -14 56 -22 72 -8 16 -18 50
-22 75 -6 44 -8 46 -46 53 -38 6 -427 6 -530 0z"/>
<path d="M14277 7091 c-51 -4 -72 -11 -83 -25 -12 -17 -13 -250 -11 -1569 2
-1451 3 -1549 19 -1561 23 -17 453 -12 474 5 12 10 14 247 14 1563 0 960 -4
1557 -10 1566 -5 9 -27 16 -52 18 -128 7 -291 9 -351 3z"/>
<path d="M15080 7085 c-5 -6 -9 -654 -10 -1571 0 -1408 1 -1562 15 -1574 22
-19 357 -22 402 -4 l33 13 2 1027 c3 1126 -1 1056 60 1041 22 -6 30 -20 52
-84 15 -43 33 -110 40 -149 8 -39 20 -84 29 -100 8 -16 18 -54 22 -84 4 -30
16 -72 26 -92 11 -21 19 -48 19 -61 0 -13 8 -48 19 -78 10 -31 22 -75 26 -100
4 -24 16 -61 26 -81 11 -21 19 -52 19 -70 0 -34 14 -88 81 -298 22 -69 39
-133 39 -142 0 -24 46 -199 70 -269 11 -30 20 -66 20 -80 0 -13 12 -55 26 -94
14 -38 32 -99 40 -135 16 -70 42 -149 55 -164 5 -5 104 -10 221 -11 247 -2
283 5 293 58 3 18 5 717 3 1554 -3 1403 -4 1524 -20 1539 -14 14 -41 17 -175
17 -172 1 -242 -5 -254 -24 -4 -7 -8 -406 -8 -887 -1 -852 -3 -903 -30 -902
-20 1 -35 24 -41 67 -14 94 -43 218 -60 253 -9 19 -22 62 -29 95 -12 55 -27
110 -75 277 -18 61 -69 254 -87 328 -6 25 -26 99 -45 165 -19 66 -34 125 -34
131 0 6 -18 68 -40 137 -22 68 -40 136 -40 150 0 15 -8 50 -19 79 -10 29 -23
69 -28 88 -7 28 -15 36 -43 42 -55 12 -589 6 -600 -7z"/>
<path d="M20504 7090 c-12 -5 -25 -13 -28 -18 -3 -6 -6 -712 -6 -1569 0 -1326
2 -1560 14 -1568 8 -7 99 -10 241 -9 182 1 229 4 236 15 11 17 12 3148 1 3150
-39 6 -442 5 -458 -1z"/>
<path d="M25003 7091 c-29 -4 -57 -11 -63 -17 -7 -7 -10 -501 -10 -1570 0
-1472 1 -1560 18 -1572 24 -19 453 -12 477 8 13 11 15 178 15 1564 0 898 -4
1557 -9 1565 -5 8 -33 18 -63 22 -63 9 -291 9 -365 0z"/>
<path d="M27788 7091 c-27 -4 -52 -11 -58 -17 -6 -6 -10 -546 -10 -1563 0
-1439 1 -1555 16 -1573 16 -16 35 -18 206 -18 187 0 189 0 213 25 l25 24 0
1014 c0 1052 -1 1037 40 1037 35 0 51 -28 85 -155 19 -71 42 -150 50 -175 7
-25 17 -65 21 -90 3 -25 14 -65 24 -90 10 -25 23 -76 30 -115 11 -65 48 -196
72 -255 6 -14 16 -50 23 -80 32 -133 55 -218 68 -250 8 -19 18 -56 21 -83 4
-26 16 -66 26 -90 10 -23 21 -69 25 -102 4 -33 13 -69 19 -80 14 -23 36 -98
67 -230 12 -49 25 -94 29 -100 4 -5 13 -36 20 -67 6 -32 16 -60 21 -63 5 -4 9
-15 9 -25 0 -47 17 -50 254 -50 211 0 225 1 250 21 l26 20 0 1559 c0 1311 -2
1559 -14 1569 -9 8 -77 11 -222 9 l-209 -3 -8 -55 c-4 -30 -6 -391 -5 -801 3
-803 5 -779 -48 -779 -31 0 -52 23 -64 73 -6 23 -19 71 -30 107 -11 36 -22 83
-26 105 -4 22 -15 60 -24 85 -10 25 -21 68 -25 95 -4 28 -14 66 -22 85 -8 19
-21 67 -28 105 -7 39 -20 90 -28 115 -8 25 -25 81 -37 125 -12 44 -29 96 -36
115 -8 19 -23 78 -33 130 -10 52 -24 109 -30 125 -5 17 -20 64 -31 105 -12 41
-28 95 -37 120 -8 25 -18 65 -22 90 -5 40 -9 46 -36 51 -39 9 -496 8 -557 0z"/>
</g>
</svg>
